<svg width="24" height="24" viewBox="0 0 24 24" fill="none" xmlns="http://www.w3.org/2000/svg">
<path d="M19.5455 7.54545H18.2727V6.90909C18.2727 6.40277 18.0716 5.91718 17.7136 5.55916C17.3555 5.20114 16.87 5 16.3636 5H4.90909C4.40277 5 3.91718 5.20114 3.55916 5.55916C3.20114 5.91718 3 6.40277 3 6.90909V14.5455C3 15.0518 3.20114 15.5374 3.55916 15.8954C3.91718 16.2534 4.40277 16.4545 4.90909 16.4545H13.8182V17.0909C13.8182 17.5972 14.0193 18.0828 14.3773 18.4408C14.7354 18.7989 15.221 19 15.7273 19H19.5455C20.0518 19 20.5374 18.7989 20.8954 18.4408C21.2534 18.0828 21.4545 17.5972 21.4545 17.0909V9.45455C21.4545 8.94822 21.2534 8.46264 20.8954 8.10461C20.5374 7.74659 20.0518 7.54545 19.5455 7.54545ZM20.1818 17.0909C20.1818 17.2597 20.1148 17.4215 19.9954 17.5409C19.8761 17.6602 19.7142 17.7273 19.5455 17.7273H15.7273C15.5585 17.7273 15.3966 17.6602 15.2773 17.5409C15.158 17.4215 15.0909 17.2597 15.0909 17.0909V9.45455C15.0909 9.28577 15.158 9.12391 15.2773 9.00457C15.3966 8.88523 15.5585 8.81818 15.7273 8.81818H19.5455C19.7142 8.81818 19.8761 8.88523 19.9954 9.00457C20.1148 9.12391 20.1818 9.28577 20.1818 9.45455V17.0909ZM12.5455 18.3636C12.5455 18.5324 12.4784 18.6943 12.3591 18.8136C12.2397 18.933 12.0779 19 11.9091 19H8.72727C8.5585 19 8.39664 18.933 8.2773 18.8136C8.15795 18.6943 8.09091 18.5324 8.09091 18.3636C8.09091 18.1949 8.15795 18.033 8.2773 17.9137C8.39664 17.7943 8.5585 17.7273 8.72727 17.7273H11.9091C12.0779 17.7273 12.2397 17.7943 12.3591 17.9137C12.4784 18.033 12.5455 18.1949 12.5455 18.3636ZM18.9091 10.7273C18.9091 10.896 18.842 11.0579 18.7227 11.1772C18.6034 11.2966 18.4415 11.3636 18.2727 11.3636H17C16.8312 11.3636 16.6694 11.2966 16.55 11.1772C16.4307 11.0579 16.3636 10.896 16.3636 10.7273C16.3636 10.5585 16.4307 10.3966 16.55 10.2773C16.6694 10.158 16.8312 10.0909 17 10.0909H18.2727C18.4415 10.0909 18.6034 10.158 18.7227 10.2773C18.842 10.3966 18.9091 10.5585 18.9091 10.7273Z" fill="black"/>
</svg>
