<?xml version="1.0" encoding="UTF-8"?>
<svg id="Layer_1" data-name="Layer 1" xmlns="http://www.w3.org/2000/svg" xmlns:xlink="http://www.w3.org/1999/xlink" viewBox="0 0 1705.99 1078.62">
  <defs>
    <style>
      .cls-1, .cls-2 {
        fill: #092978;
      }

      .cls-3 {
        fill: #76c5fb;
      }

      .cls-3, .cls-4, .cls-5, .cls-6, .cls-7, .cls-8, .cls-9, .cls-10, .cls-2, .cls-11, .cls-12, .cls-13, .cls-14, .cls-15, .cls-16, .cls-17, .cls-18, .cls-19, .cls-20, .cls-21, .cls-22, .cls-23 {
        fill-rule: evenodd;
      }

      .cls-24, .cls-7 {
        fill: #fff;
      }

      .cls-4 {
        fill: #b8e1f8;
      }

      .cls-5 {
        fill: #003398;
      }

      .cls-6 {
        fill: #f36c06;
      }

      .cls-8 {
        fill: #ef8200;
      }

      .cls-9 {
        fill: #aedcfc;
      }

      .cls-10, .cls-25 {
        fill: #00a0e8;
      }

      .cls-11 {
        fill: #e98385;
      }

      .cls-12, .cls-26 {
        fill: #9d1f39;
      }

      .cls-27 {
        fill: #4eb3fa;
      }

      .cls-13 {
        fill: #f974a6;
      }

      .cls-28, .cls-15 {
        fill: #1e2187;
      }

      .cls-14 {
        fill: #f4b1b1;
      }

      .cls-16 {
        fill: #db5a04;
      }

      .cls-29 {
        clip-path: url(#clippath);
      }

      .cls-30 {
        clip-rule: evenodd;
        fill: none;
      }

      .cls-17 {
        fill: #77c6fb;
      }

      .cls-18 {
        fill: #1643b4;
      }

      .cls-19, .cls-31 {
        fill: #fbcd00;
      }

      .cls-32 {
        fill: #4887c3;
      }

      .cls-20 {
        fill: #ddf0ff;
      }

      .cls-33 {
        fill: url(#linear-gradient);
      }

      .cls-21 {
        fill: #0097d6;
      }

      .cls-34 {
        fill: #343851;
      }

      .cls-22 {
        fill: #000446;
      }
    </style>
    <clipPath id="clippath">
      <path class="cls-30" d="m495.77,467.28h625.86c.59,0,1.07.48,1.07,1.07v377.76c0,.59-.48,1.07-1.07,1.07H495.77c-.59,0-1.07-.48-1.07-1.07v-377.76c0-.59.48-1.07,1.07-1.07"/>
    </clipPath>
    <linearGradient id="linear-gradient" x1="808.71" y1="1008.33" x2="808.71" y2="514.63" gradientUnits="userSpaceOnUse">
      <stop offset="0" stop-color="#8bc1f6"/>
      <stop offset="1" stop-color="#eff7fc"/>
    </linearGradient>
  </defs>
  <path class="cls-4" d="m38.82,1015.6s79.03-67,142.7-41.46c63.67,25.54,80.1,3.96,113.08-30.39,32.98-34.34,49.65-42.97,89.38-53.76,52.38-14.22,76.63,10.85,88.07,20.13,11.44,9.28,12.1,64.33,34.18,20.11,22.08-44.21,41.71-79.38,75.33-68.67,20.14,6.42,90.97,41.03,125.84-6.3,15.47-21,40.14-46.78,74.45-42.43,34.31,4.35,44.35,11.76,64.15,21.9,19.8,10.14,53.81-1.19,71.3-10.6,24.2-13.03,49.74-35.47,88.13-10.14,41.02,27.07,46.91,45.09,106.75,17.45,22.41-10.35,54.51-12.54,91.07,14.5,52.97,39.17,59.73,89.84,134.3,64.58,98.46-33.35,112.07,66.9,166.74,64.45,16.15-.72,34.24-10.4,63.96-.37,29.72,10.03,54.77,35.47,56.17,40.26-6.1-.96-1585.62.72-1585.62.72"/>
  <path class="cls-2" d="m120.71,1008.35h1519.02c2.36,0,4.29,1.93,4.29,4.29h0c0,2.36-1.93,4.29-4.29,4.29H120.71c-2.36,0-4.29-1.93-4.29-4.29h0c0-2.36,1.93-4.29,4.29-4.29"/>
  <polygon class="cls-2" points="749.52 886.24 878.13 886.24 899.45 980.6 770.83 980.6 749.52 886.24"/>
  <path class="cls-2" d="m522.43,428.21h625.57c22.16,0,40.29,18.13,40.29,40.29v377.46c0,22.16-18.13,40.29-40.29,40.29h-625.57c-22.16,0-40.29-18.13-40.29-40.29v-377.46c0-22.16,18.13-40.29,40.29-40.29"/>
  <path class="cls-10" d="m495.92,428.21h625.57c22.16,0,40.29,18.13,40.29,40.29v377.46c0,22.16-18.13,40.29-40.29,40.29H495.92c-22.16,0-40.29-18.13-40.29-40.29v-377.46c0-22.16,18.13-40.29,40.29-40.29"/>
  <g class="cls-29">
    <rect class="cls-33" x="494.7" y="467.28" width="628" height="379.9"/>
  </g>
  <polygon class="cls-5" points="739.96 886.24 868.58 886.24 889.89 980.6 761.28 980.6 739.96 886.24"/>
  <rect class="cls-32" x="494.7" y="467.28" width="10.36" height="379.9"/>
  <path class="cls-9" d="m797.12,854.2c7.08,0,12.83,5.74,12.83,12.83s-5.74,12.83-12.83,12.83-12.83-5.74-12.83-12.83,5.74-12.83,12.83-12.83"/>
  <path class="cls-2" d="m725.53,975.45h173.91v16.43c0,9.04-7.4,16.44-16.43,16.44h-173.91v-16.44c0-9.04,7.39-16.43,16.43-16.43"/>
  <path class="cls-18" d="m715.98,975.45h173.91v16.43c0,9.04-7.39,16.44-16.43,16.44h-173.91v-16.44c0-9.04,7.4-16.43,16.44-16.43"/>
  <rect class="cls-27" x="537.59" y="497.93" width="253.05" height="154.98"/>
  <rect class="cls-27" x="537.59" y="670.42" width="105.07" height="154.98"/>
  <rect class="cls-27" x="803.77" y="670.42" width="285.44" height="17.59"/>
  <rect class="cls-27" x="803.77" y="704.77" width="285.44" height="17.59"/>
  <rect class="cls-27" x="803.77" y="739.11" width="285.44" height="17.59"/>
  <rect class="cls-27" x="803.77" y="773.46" width="285.44" height="17.59"/>
  <rect class="cls-27" x="803.77" y="807.81" width="285.44" height="17.59"/>
  <path class="cls-7" d="m1114.2,818.09l66.15,182h-138.24l66.06-181.75c.45-1.26,1.32-1.99,2.39-2.31,1.2-.36,2.97.19,3.64,2.07"/>
  <path class="cls-6" d="m1096.29,851.03h29.89l-11.97-32.93c-.68-1.87-2.44-2.42-3.64-2.07-1.08.32-1.94,1.05-2.39,2.31l-11.88,32.69Z"/>
  <polygon class="cls-6" points="1069.27 925.37 1126.82 925.37 1153.19 925.37 1139.68 888.2 1126.82 888.2 1082.78 888.2 1069.27 925.37"/>
  <polygon class="cls-6" points="1042.11 1000.09 1126.82 1000.09 1180.35 1000.09 1166.7 962.54 1126.82 962.54 1055.76 962.54 1042.11 1000.09"/>
  <path class="cls-16" d="m1030.99,1008.32h160.48c2.5,0,4.55-2.05,4.55-4.55h0c0-2.5-2.05-4.55-4.55-4.55h-160.48c-2.5,0-4.55,2.05-4.55,4.54h0c0,2.5,2.05,4.55,4.55,4.55"/>
  <path class="cls-7" d="m1114.2,790.53l66.15,182h-138.24l66.06-181.75c.45-1.26,1.32-1.99,2.39-2.31,1.2-.36,2.97.19,3.64,2.06"/>
  <path class="cls-6" d="m1096.29,823.46h29.89l-11.97-32.93c-.68-1.87-2.44-2.42-3.64-2.06-1.08.32-1.94,1.05-2.39,2.31l-11.88,32.69Z"/>
  <polygon class="cls-6" points="1069.27 897.81 1126.82 897.81 1153.19 897.81 1139.68 860.64 1126.82 860.64 1082.78 860.64 1069.27 897.81"/>
  <polygon class="cls-6" points="1042.11 972.53 1126.82 972.53 1180.35 972.53 1166.7 934.98 1126.82 934.98 1055.76 934.98 1042.11 972.53"/>
  <path class="cls-16" d="m1030.99,980.76h160.48c2.5,0,4.55-2.05,4.55-4.54h0c0-2.5-2.05-4.55-4.55-4.55h-160.48c-2.5,0-4.55,2.05-4.55,4.55h0c0,2.5,2.05,4.54,4.55,4.54"/>
  <rect class="cls-27" x="655.8" y="670.42" width="134.25" height="154.98"/>
  <rect class="cls-31" x="449.2" y="716.91" width="746.44" height="49.56" transform="translate(-61.13 74) rotate(-4.97)"/>
  <polygon class="cls-5" points="464.18 747.95 509.82 743.99 559 789.46 513.36 793.43 464.18 747.95"/>
  <polygon class="cls-15" points="588.37 737.16 634.01 733.19 683.19 778.67 637.55 782.63 588.37 737.16"/>
  <polygon class="cls-15" points="712.56 726.37 758.2 722.4 807.38 767.88 761.74 771.84 712.56 726.37"/>
  <polygon class="cls-15" points="836.75 715.57 882.39 711.61 931.56 757.08 885.93 761.05 836.75 715.57"/>
  <polygon class="cls-15" points="960.93 704.78 1006.57 700.81 1055.75 746.29 1010.12 750.25 960.93 704.78"/>
  <polygon class="cls-15" points="1085.12 693.99 1130.76 690.02 1179.94 735.49 1134.3 739.46 1085.12 693.99"/>
  <polygon class="cls-5" points="346.96 813.81 370.69 821.85 394.43 813.81 427.05 967.7 459.68 813.81 483.41 821.85 507.14 813.81 548.6 1009.35 513.18 1009.35 483.41 868.92 453.64 1009.35 400.47 1009.35 370.69 868.92 340.92 1009.35 305.51 1009.35 346.96 813.81"/>
  <path class="cls-5" d="m371.92,762.34c18.09,0,32.75,14.66,32.75,32.75s-14.66,32.75-32.75,32.75-32.75-14.66-32.75-32.75,14.66-32.75,32.75-32.75"/>
  <path class="cls-5" d="m483.23,762.99c17.73,0,32.1,14.37,32.1,32.1s-14.37,32.1-32.1,32.1-32.1-14.37-32.1-32.1,14.37-32.1,32.1-32.1"/>
  <rect class="cls-24" x="287.83" y="830.82" width="278.44" height="47.42"/>
  <polygon class="cls-7" points="413.94 830.82 482.59 830.82 433.26 878.24 364.61 878.24 413.94 830.82"/>
  <polygon class="cls-7" points="482.59 830.82 551.24 830.82 501.91 878.24 433.26 878.24 482.59 830.82"/>
  <polygon class="cls-7" points="345.29 830.82 413.94 830.82 364.61 878.24 295.96 878.24 345.29 830.82"/>
  <polygon class="cls-6" points="501.91 878.24 566.27 878.24 566.27 830.82 551.24 830.82 501.91 878.24"/>
  <polygon class="cls-6" points="364.61 878.24 433.26 878.24 482.59 830.82 413.94 830.82 364.61 878.24"/>
  <polygon class="cls-6" points="295.96 878.24 345.29 830.82 287.83 830.82 287.83 878.24 295.96 878.24"/>
  <rect class="cls-24" x="287.83" y="905.89" width="278.44" height="47.43"/>
  <polygon class="cls-7" points="413.94 905.89 482.59 905.89 433.26 953.32 364.61 953.32 413.94 905.89"/>
  <polygon class="cls-7" points="482.59 905.89 551.24 905.89 501.91 953.32 433.26 953.32 482.59 905.89"/>
  <polygon class="cls-7" points="345.29 905.89 413.94 905.89 364.61 953.32 295.96 953.32 345.29 905.89"/>
  <polygon class="cls-6" points="501.91 953.32 566.27 953.32 566.27 905.89 551.24 905.89 501.91 953.32"/>
  <polygon class="cls-6" points="364.61 953.32 433.26 953.32 482.59 905.89 413.94 905.89 364.61 953.32"/>
  <polygon class="cls-6" points="295.96 953.32 345.29 905.89 287.83 905.89 287.83 953.32 295.96 953.32"/>
  <path class="cls-19" d="m371.91,780.12c8.27,0,14.98,6.7,14.98,14.98s-6.71,14.98-14.98,14.98-14.98-6.71-14.98-14.98,6.71-14.98,14.98-14.98"/>
  <path class="cls-19" d="m483.23,780.12c8.27,0,14.98,6.7,14.98,14.98s-6.71,14.98-14.98,14.98-14.98-6.71-14.98-14.98,6.7-14.98,14.98-14.98"/>
  <path class="cls-5" d="m289.17,1009.35h273.35v-3.63c0-1.99-1.63-3.63-3.63-3.63h-266.09c-2,0-3.63,1.63-3.63,3.63v3.63Z"/>
  <path class="cls-25" d="m1332.98,934.76v65.82h35.87l-35.87-65.82Zm0-11.54v2.31l37.35,68.54v-139.38l-37.35,68.53Zm0-75.05v65.82l35.87-65.82h-35.87Zm0-73.56v65.82h35.87l-35.87-65.82Zm0-11.54v2.31l37.35,68.54v-139.38l-37.35,68.53Zm0-75.05v65.82l35.87-65.82h-35.87Zm0-73.56v65.82h35.87l-35.87-65.82Zm0-11.54v2.31l37.35,68.54v-139.38l-37.35,68.53Zm0-75.05v65.82l35.87-65.82h-35.87Zm0-73.56v65.82h35.87l-35.87-65.82Zm0-11.54v2.31l37.35,68.54v-139.38l-37.35,68.54Zm0-75.05v65.82l35.87-65.82h-35.87Zm0-73.56v65.82h35.87l-35.87-65.82Zm0-11.54v2.31l37.35,68.53v-139.38l-37.35,68.53Zm0-75.05v65.82l35.87-65.82h-35.87Zm-6.29,65.82v-65.82h-35.86l35.86,65.82Zm0,11.54v-2.31l-37.34-68.53v139.38l37.34-68.53Zm0,75.05v-65.82l-35.86,65.82h35.86Zm0,73.56v-65.82h-35.86l35.86,65.82Zm0,11.54v-2.31l-37.34-68.54v139.38l37.34-68.54Zm0,75.06v-65.82l-35.86,65.82h35.86Zm0,73.56v-65.82h-35.86l35.86,65.82Zm0,11.54v-2.31l-37.34-68.53v139.38l37.34-68.54Zm0,75.05v-65.82l-35.86,65.82h35.86Zm0,73.56v-65.82h-35.86l35.86,65.82Zm0,11.54v-2.31l-37.34-68.53v139.38l37.34-68.54Zm0,75.05v-65.82l-35.86,65.82h35.86Zm0,73.56v-65.82h-35.86l35.86,65.82Zm0,86.6v-65.82l-35.86,65.82h35.86Zm0-816.23h-31.92l-4.21,15.47h36.13v-15.47Zm38.2,0h-31.92v15.47h36.13l-4.21-15.47Zm-31.92-7.74h29.81l-27.94-102.55-1.87-6.85v109.4Zm-36.09,0h29.81v-109.4l-29.81,109.4Zm-10.68,0h4.07l36.42-133.68v-.59l6.12-.04,36.59,134.31h7.21v26.48h0s1.21,4.46,1.21,4.46h-1.21v800.77h-93.56V207.55h-1.22l1.22-4.46v-26.48h3.14Zm3.14,817.45l37.34-68.54v-2.31l-37.34-68.53v139.38Z"/>
  <path class="cls-25" d="m475.52,259.87l-8.14,2.95-.14,21.96h76.95l-68.67-24.91Zm171.43,0h-5.45l-67.99,24.91h140.7l-67.26-24.91Zm77.93,0h-65.58l65.58,24.29v-24.29Zm73.41,0h-65.59v24.29l65.59-24.29Zm16.83,0h-4.49l-67.25,24.91h139l-67.26-24.91Zm77.93,0h-65.59l65.59,24.29v-24.29Zm73.41,0h-65.59v24.29l65.59-24.29Zm16.83,0h-4.49l-67.26,24.91h139l-67.26-24.91Zm77.93,0h-65.59l65.59,24.29v-24.29Zm73.41,0h-65.59v24.29l65.59-24.29Zm16.83,0h-4.48l-67.26,24.91h139l-67.26-24.91Zm77.94,0h-65.59l65.59,24.29v-24.29Zm73.41,0h-65.59v24.29l65.59-24.29Zm16.83,0h-4.48l-67.26,24.91h139l-67.26-24.91Zm77.94,0h-65.59l65.59,24.29v-24.29Zm73.41,0h-65.59v24.29l65.59-24.29Zm16.83,0h-4.48l-67.26,24.91h139l-67.26-24.91Zm77.94,0h-65.59l65.59,24.29v-24.29Zm-65.59-6.23h65.59v-24.29l-65.59,24.29Zm-16.83,0h4.48l67.26-24.91h-139l67.26,24.91Zm-77.94,0h65.59l-65.59-24.29v24.29Zm-73.41,0h65.59v-24.29l-65.59,24.29Zm-16.83,0h4.48l67.26-24.91h-139l67.26,24.91Zm-77.94,0h65.59l-65.59-24.29v24.29Zm-73.41,0h65.59v-24.29l-65.59,24.29Zm-16.83,0h4.48l67.26-24.91h-139l67.26,24.91Zm-77.94,0h65.59l-65.59-24.29v24.29Zm-73.41,0h65.59v-24.29l-65.59,24.29Zm-16.83,0h4.48l67.26-24.91h-139l67.26,24.91Zm-77.94,0h65.59l-65.59-24.29v24.29Zm-73.41,0h65.59v-24.29l-65.59,24.29Zm-16.83,0h4.48l67.26-24.91h-139l67.26,24.91Zm-77.94,0h65.59l-65.59-24.29v24.29Zm-74.19,0h66.37v-24.32l-66.37,24.32Zm-93.98,6.23v23.64l64.53-23.64h-64.53Zm0-30.53v24.29h65.59l-65.59-24.29Zm-7.82-5.73l3.08-1.12h1013.8v68.52H459.56l.2-32.27,96.96-35.14Zm0,30.03v-23.19l-63.99,23.19h63.99Zm0,31.14v-24.91h-67.43l67.26,24.91h.17Zm18.5-56.06l67.26,24.91h3.6l68-24.91h-138.86Z"/>
  <path class="cls-10" d="m1240.45,166.15h146.48c24.02,0,43.68,19.65,43.68,43.68v69.14c0,24.02-19.65,43.68-43.68,43.68h-146.48c-24.02,0-43.67-19.66-43.67-43.68v-69.14c0-24.02,19.65-43.68,43.67-43.68"/>
  <path class="cls-20" d="m1241.81,184.35h42.34c7.24,0,13.17,5.93,13.17,13.17v42.34c0,15.51-12.69,28.2-28.2,28.2h-27.3c-15.51,0-28.2-12.69-28.2-28.2v-27.3c0-15.51,12.69-28.2,28.2-28.2"/>
  <path class="cls-20" d="m1323.66,184.35h21.91c6.49,0,11.8,5.31,11.8,11.8v21.91c0,6.49-5.31,11.8-11.8,11.8h-21.91c-6.49,0-11.8-5.31-11.8-11.8v-21.91c0-6.49,5.31-11.8,11.8-11.8"/>
  <path class="cls-20" d="m1320.73,238.48h27.76c4.88,0,8.87,3.99,8.87,8.87h0c0,4.88-3.99,8.87-8.87,8.87h-27.76c-4.88,0-8.87-3.99-8.87-8.87h0c0-4.88,3.99-8.87,8.87-8.87"/>
  <polygon class="cls-25" points="1330.4 49.91 558.89 227.51 557.76 222.49 1329.28 44.89 1330.4 49.91"/>
  <path class="cls-15" d="m921.96,291.01h72.33v12.02c0,6.61-5.41,12.02-12.02,12.02h-48.29c-6.61,0-12.02-5.41-12.02-12.02v-12.02Z"/>
  <rect class="cls-27" x="817.42" y="409.88" width="285.44" height="154.98"/>
  <path class="cls-3" d="m851.17,435.06l211.22-.72c2.26,0,4.11,1.83,4.12,4.09h0c0,2.26-1.83,4.11-4.09,4.12l-211.22.72c-2.26,0-4.11-1.83-4.12-4.09h0c0-2.26,1.83-4.11,4.09-4.12"/>
  <path class="cls-3" d="m851.28,465.54l211.22-.72c2.26,0,4.11,1.83,4.12,4.09h0c0,2.26-1.83,4.11-4.09,4.12l-211.22.72c-2.26,0-4.11-1.84-4.12-4.09h0c0-2.26,1.83-4.11,4.09-4.12"/>
  <path class="cls-3" d="m851.38,496.02l211.22-.72c2.26,0,4.11,1.83,4.12,4.09h0c0,2.26-1.83,4.11-4.09,4.12l-211.22.72c-2.26,0-4.11-1.83-4.12-4.09h0c0-2.26,1.83-4.11,4.09-4.12"/>
  <path class="cls-3" d="m851.48,526.5l211.22-.72c2.26,0,4.11,1.84,4.12,4.09h0c0,2.26-1.83,4.11-4.09,4.12l-211.22.72c-2.26,0-4.11-1.83-4.12-4.09h0c0-2.26,1.83-4.11,4.09-4.12"/>
  <path class="cls-19" d="m964.22,439.47l28.02,47.24,27.91,47.05c1.88,3.17.64,6.26-3.33,6.31l-54.92.65-54.7.65c-3.69.04-5.75-2.57-3.8-6.04l26.9-47.89,26.79-47.7c1.81-3.21,5.1-3.69,7.13-.28"/>
  <path class="cls-1" d="m911.33,532.48l48.21-85.82,1.23-2.19,1.28,2.16,50.22,84.66,1.28,2.16-2.51.03-98.43,1.16-2.51.03,1.23-2.18Zm49.51-82.22l-45.75,81.45,93.42-1.1-47.66-80.35Z"/>
  <path class="cls-2" d="m962.57,526.67c-1.52.02-2.86-.46-4-1.44-1.15-.97-1.73-2.35-1.75-4.12-.02-1.55.5-2.88,1.58-3.97s2.39-1.65,3.96-1.67c1.57-.02,2.91.5,4.04,1.58,1.13,1.08,1.69,2.39,1.71,3.94.02,1.75-.53,3.14-1.63,4.15-1.11,1.01-2.41,1.52-3.91,1.54m-4.44-24.62l-1.41-17.92c-.26-3.49-.4-6.01-.42-7.53-.03-2.07.49-3.69,1.57-4.87,1.08-1.18,2.49-1.77,4.25-1.79,2.15-.03,3.59.7,4.33,2.18.75,1.48,1.13,3.62,1.16,6.41.02,1.65-.05,3.33-.2,5.03l-1.39,18.48c-.15,2.2-.51,3.9-1.07,5.08-.55,1.17-1.49,1.77-2.82,1.79-1.34.01-2.28-.54-2.82-1.67-.53-1.13-.93-2.86-1.18-5.18Z"/>
  <polygon class="cls-28" points="826.36 573.69 826.41 409.69 826.32 409.08 826.76 408.65 956.84 300.39 957.64 299.6 958.54 300.26 1094.51 408.09 1094.93 408.4 1095.01 408.92 1095.03 564.97 1092.48 565.31 1092.54 409.78 957.9 302.94 829.04 409.97 828.91 573.36 826.36 573.69"/>
  <rect class="cls-31" x="795.49" y="187.01" width="50.66" height="762.93" transform="translate(118.04 1277.71) rotate(-79.97)"/>
  <polygon class="cls-15" points="465.49 479.89 511.6 488.05 548.12 545.95 502.01 537.8 465.49 479.89"/>
  <polygon class="cls-15" points="590.95 502.09 637.06 510.25 673.58 568.15 627.48 559.99 590.95 502.09"/>
  <polygon class="cls-15" points="716.42 524.28 762.52 532.44 799.05 590.35 752.94 582.19 716.42 524.28"/>
  <polygon class="cls-15" points="841.88 546.48 887.99 554.64 924.51 612.54 878.41 604.39 841.88 546.48"/>
  <polygon class="cls-5" points="967.35 568.68 1013.45 576.83 1049.98 634.74 1003.87 626.58 967.35 568.68"/>
  <polygon class="cls-15" points="1092.81 590.87 1138.91 599.03 1175.44 656.93 1129.33 648.78 1092.81 590.87"/>
  <polygon class="cls-25" points="1331.31 45.29 1573.59 222.49 1570.64 226.7 1328.37 49.5 1331.31 45.29"/>
  <path class="cls-5" d="m1244.72,981.25h170.25c7.73,0,14.05,6.32,14.05,14.05v14.05h-198.35v-14.05c0-7.73,6.32-14.05,14.05-14.05"/>
  <path class="cls-13" d="m1528.23,769.35c.51,3.23-1.85,8-4.42,9.93-.37-.67-3.94-7.11-3.94-7.11.53-3.42,2.61-6.16,4.64-7.09l3.72,4.27Z"/>
  <path class="cls-14" d="m1522.56,762.59c-.22-1.42-1.18-7.03-2.12-8.01-.48-.5-.61-.29-.85,0-.21.25-.41.96-.37,1.46.07,1.04.1,1.98.22,2.54-2.9-1.79-5.57-5.78-7.62-8.52-.83-1.11-2.25-1.07-1.49.88.62,1.6,4.36,6.9,4.36,6.9l-5.77-3.68c-1.01-.65-1.07.7-.6,1.29.77.97,5.71,4.58,5.71,4.58l-5.54-1.15s-.6.6.07,1.07c.67.47,5.94,2.56,5.94,2.56l-3.62-.11s-.37.75.53,1.1c.48.19,1.73.4,2.92.88,1.04.42,2.02,1.1,2.39,1.36.8.56,2.39,2.38,2.39,2.38.67,1.47,1.52,3.73,1.52,3.73.85-.62,3.25-3.17,3.69-6.26l-1.77-2.99Z"/>
  <path class="cls-13" d="m1531.03,770.03c.51,3.22-1.84,7.97-4.4,9.89-.37-.67-3.93-7.08-3.93-7.08.53-3.4,2.61-6.13,4.62-7.06l3.71,4.25Z"/>
  <path class="cls-12" d="m1421.49,1009.98h41.37c1.96,0,3.55-1.46,3.8-3.32.03-.26.04-.53.02-.8l-1.68-21.73s-1.72-.79-4.13-1.36c-1.43-.34-2.63-1.38-3.07-2.78-.03-.1-.06-.21-.09-.31-.95-4.18-6.98-5.51-8.09-1.43-.14.53-.27,1.04-.38,1.54-.03.12-.05.25-.07.36-.18.88-.31,1.69-.4,2.4v.04c-.23,1.8-.21,2.95-.21,2.95-.55.7-1.08,1.38-1.59,2.05-.26.34-.51.67-.76,1-.54.71-1.07,1.4-1.59,2.06-.24.31-.48.61-.72.91-.57.72-1.14,1.4-1.71,2.03-.25.29-.51.57-.77.84-2.13,2.24-4.28,3.78-6.83,4.13-4.49.62-11.81,1.11-15.35,7.69-.08.14-.13.28-.18.42-.52,1.59.67,3.32,2.43,3.32"/>
  <path class="cls-34" d="m1421.49,1009.98h41.37c1.96,0,3.55-1.46,3.8-3.32h-47.6c-.52,1.59.67,3.32,2.43,3.32"/>
  <path class="cls-22" d="m1512.34,839.04v25.46c0,28.22-4.98,90.2-6.78,124.45l-18.94-.37-15.54-123.53-26.56,3.8-1.31-33.71h0c-.31-116.54,59.38-89.4,54.16-23.33-.58,7.27,17.77,19.24,14.99,27.22"/>
  <polygon class="cls-22" points="1442.83 845.9 1477.98 845.9 1465.38 989.09 1445.41 989.61 1442.83 845.9"/>
  <path class="cls-12" d="m1480,1007.94c.34,6.04,21.74,3.96,25.16,2.15,1.32-.7,1.87-2.05,1.98-3.68.17-2.6-.8-5.94-1.64-8.55-1.37-4.25-1.18-4.17-2.13-7.08,0,0,.25-4.73-6.76-6.53-7.01-1.81-9.58,9.96-10.78,12.23-1.09,2.07-5.36,4.91-5.79,10.01-.04.47-.05.95-.02,1.45"/>
  <path class="cls-34" d="m1480,1007.94c.34,6.04,21.74,3.96,25.16,2.15,1.32-.7,1.87-2.05,1.98-3.68-2.25,1.13-6.21,2.54-12.12,2.63-7.26.12-12.49-1.18-14.99-2.55-.04.47-.05.95-.02,1.45"/>
  <polygon class="cls-23" points="1471.07 865.05 1462.36 987.81 1465.26 987.59 1474.14 889.47 1471.07 865.05"/>
  <path class="cls-3" d="m1461.6,751.52c-6.5,14.26-10.73,18.79-29.32,21.56-15.08,2.25-43.79-31.67-45.96-36.3-2.17-4.63,6.08-16.73,8.73-15.33,2.66,1.4,33.6,25.05,35.72,24.9,2.15-.16,9.44-3.49,25.99-14.24,1.57-1.01,9.41,12.53,4.84,19.41"/>
  <path class="cls-21" d="m1521.9,738.41c6.19,9.23-12.13,66.46-6.96,113.37-28.96,4.97-58.4,4.43-75.7-1.08.04-35.49,1.95-84.24,9.31-110.75,1.73-4.3,5.15-7.36,13.61-9.73,20.61-5.77,51.26-4.46,59.75,8.19"/>
  <path class="cls-21" d="m1470.44,728.46c-11.36,5.79-14.19,54.62-17.28,122.77,9.76.89,17.8,1.07,29.08-.01,1.19-66.5,12.33-112.12,16.63-123.45-9.27-.61-17.09-1.08-28.44.69"/>
  <path class="cls-14" d="m1468.04,711.48c1.76,4.18,5.21,8.06,8.28,9.8l-.51,5.87-.9.67c-3.59,3.36-.89,12.09,2.39,15.27,5.72-.27,18.53-10.53,15.92-15.03l-1.16-1.49.29-8.34c.5,0,4.26-1.81,5.36-2.06,1.1-.26,2.83-2.23,3.08-4.42.25-2.18-3.18-1.71-3.18-1.71,4.49-5.34,9.45-9.61,3.76-15.08-5.68-5.47-19.33-9.36-19.33-9.36l-8.13-3.46c.86,2.95-1.91,11.03-4.46,16.87-2.28,5.24-3.76,6.83-1.4,12.45"/>
  <path class="cls-11" d="m1488.33,719.13s-5.26,7.77-9.18,8.23c-3.92.47-1.91.06-3.34-.21l.51-5.87c2.64.61,5.26.58,12.01-2.16"/>
  <rect class="cls-26" x="1484.49" y="799.85" width="39.06" height="56.13" transform="translate(28.41 1705.46) rotate(-59.57)"/>
  <path class="cls-14" d="m1494.79,834.76l-6.42,6.4-2.08-1.22s1.14,2.98,1.84,3.66c.7.68,2.28.76,2.28.76,0,0,.79,1.69.97,1.83.18.14,1.48.76,2.13.45.66-.31,1.17,1.39,1.17,1.39,0,0,1.51.29,2.2.18.69-.11.7,1.03.7,1.03,0,0,2.94-.74,4.2-3.07,1.26-2.33,3.27-5.55,3.27-5.55,0,0-5.06-4.29-6.35-4.93-1.28-.64-3.9-.94-3.9-.94"/>
  <path class="cls-3" d="m1505.1,754.17c-7.3-15.92,1.73-23.04,10.54-21.65,15.96,4.07,32.19,52.64,27.99,65.26-2.95,8.53-34.65,44.32-39.42,43.04-1.11-.3-10.91-3.5-8.69-9.99.69-2.04,24.42-35.68,25.06-38.72,1.06-5.05-13.1-33.4-15.47-37.94"/>
  <path class="cls-3" d="m1394.3,723.09c.7,4.38-3.38,11.43-6.48,12.69-.35-.62-2.42-3.29-3.79-5.34-2.95-4.41,4.01-13.62,6.05-11.58l4.22,4.23Z"/>
  <path class="cls-14" d="m1385.83,716.5c-.43-2.01-2.26-9.96-3.74-11.3-.76-.68-.94-.37-1.27.06-.29.38-.54,1.41-.46,2.11.17,1.47.29,2.82.51,3.61-4.49-2.35-8.78-7.85-12.06-11.62-1.33-1.53-3.45-1.37-2.17,1.36,1.05,2.23,5.19,7.24,5.19,7.24l-2.12-1.88c-1.57-.85-1.9,1.94-1.16,2.75,1.23,1.33,1.53,1.79,1.53,1.79l-.76-.41c-1.9-.69-1.19,3.53,1.57,4.84-2.14-.71-.23,2.49.39,2.68.13.04,4.71,2.91,6,3.68,3.22,1.93,4.75,5.12,7.03,7.8,1.24-.94,4.35-4.56,4.79-9.01l-3.27-3.71Z"/>
  <path class="cls-23" d="m1480.78,678.73c-2.97,7.56-4.53,8.22,2.95,10.92,5.57,2.01,4.04,2.88,7.76,7.91,1.84,2.49,3.09,8.38.5,13.47-.77,1.5-1.72,2.58.97,1.55,1.24-.47,3.26-1.11,3.9-.52,1.41,1.31.49,3.81-.76,4.54-.56.33-1.6.81-1.6.81,10.01-.6,17.24-9.72,17.42-19.48.27-15.13-.88-11.05-13.48-19.85-5.53-3.87-15.29-5.32-17.64.66"/>
  <path class="cls-8" d="m1508.88,708.92c3.87-.95,9.79-13.62,4.07-25.34-4.08-8.35-16.04-14.11-26.25-10.4-7.81,2.84-11.97,8.45-11.97,8.45l-11.64-3.71s-3.47-1.66.26,2.44c8.62,9.46,35.42,25.76,45.53,28.56"/>
  <rect class="cls-25" x="1462.36" y="287.15" width="23" height="92.51"/>
  <rect class="cls-25" x="1489.19" y="287.15" width="23" height="92.51"/>
  <rect class="cls-25" x="1516.02" y="287.15" width="23" height="92.51"/>
  <rect class="cls-25" x="1542.85" y="287.15" width="23" height="92.51"/>
  <path class="cls-10" d="m717.35,982.35h141.13c2.85,0,5.19,2.33,5.19,5.19h0c0,2.85-2.33,5.19-5.19,5.19h-141.13c-2.85,0-5.19-2.33-5.19-5.19h0c0-2.86,2.33-5.19,5.19-5.19"/>
  <path class="cls-17" d="m1252.27,205.8h0c1.59,1.33,1.81,3.72.48,5.31l-13.01,15.6c-1.33,1.6-3.72,1.81-5.32.48-1.59-1.33-1.81-3.72-.48-5.31l13.01-15.6c1.33-1.59,3.72-1.81,5.31-.48"/>
  <path class="cls-17" d="m1270.85,207.31h0c1.6,1.33,1.81,3.72.48,5.31l-26.76,32.1c-1.33,1.59-3.72,1.81-5.31.48-1.59-1.33-1.81-3.72-.48-5.31l26.77-32.1c1.33-1.59,3.72-1.81,5.31-.48"/>
  <path class="cls-17" d="m1276.12,225.69h0c1.59,1.33,1.81,3.72.48,5.31l-13.01,15.6c-1.33,1.6-3.72,1.81-5.31.48-1.59-1.33-1.81-3.72-.48-5.31l13.01-15.6c1.33-1.59,3.72-1.81,5.31-.48"/>
</svg>