<svg width="24" height="24" viewBox="0 0 24 24" fill="none" xmlns="http://www.w3.org/2000/svg">
<path fillRule="evenodd" clipRule="evenodd" d="M12 4C16.4184 4 20 7.5816 20 12C20 16.4184 16.4184 20 12 20C7.5816 20 4 16.4184 4 12C4 7.5816 7.5816 4 12 4ZM12.4 12.8H7.44C7.22783 12.8 7.02434 12.8843 6.87431 13.0343C6.72429 13.1843 6.64 13.3878 6.64 13.6C6.64 13.8122 6.72429 14.0157 6.87431 14.1657C7.02434 14.3157 7.22783 14.4 7.44 14.4H7.8512L7.6216 14.8088C7.57023 14.9005 7.53742 15.0015 7.52506 15.1058C7.51269 15.2102 7.52101 15.316 7.54954 15.4172C7.57806 15.5184 7.62624 15.613 7.69131 15.6955C7.75639 15.7781 7.83708 15.847 7.9288 15.8984C8.02052 15.9498 8.12145 15.9826 8.22584 15.9949C8.33024 16.0073 8.43604 15.999 8.53722 15.9705C8.6384 15.9419 8.73297 15.8938 8.81553 15.8287C8.89809 15.7636 8.96703 15.6829 9.0184 15.5912L9.6848 14.4H12.4C12.6122 14.4 12.8157 14.3157 12.9657 14.1657C13.1157 14.0157 13.2 13.8122 13.2 13.6C13.2 13.3878 13.1157 13.1843 12.9657 13.0343C12.8157 12.8843 12.6122 12.8 12.4 12.8ZM13.9144 10.4088C13.816 10.2281 13.6518 10.0923 13.4558 10.0296C13.2599 9.96685 13.0473 9.98201 12.8623 10.0719C12.6772 10.1618 12.5339 10.3195 12.4622 10.5123C12.3904 10.7051 12.3956 10.9182 12.4768 11.1072L12.5184 11.1912L14.9824 15.5912C15.0822 15.7691 15.2462 15.9022 15.4408 15.9632C15.6354 16.0242 15.846 16.0086 16.0295 15.9195C16.213 15.8304 16.3556 15.6746 16.428 15.4839C16.5004 15.2932 16.4973 15.082 16.4192 14.8936L16.3776 14.8088L16.1488 14.4008H16.56C16.7651 14.4024 16.9631 14.3252 17.1129 14.185C17.2627 14.0448 17.3529 13.8525 17.3649 13.6477C17.377 13.4429 17.3098 13.2413 17.1775 13.0846C17.0451 12.9279 16.8575 12.828 16.6536 12.8056L16.56 12.8H15.2528L13.9144 10.4088ZM11.8984 6.8088C11.8 6.62814 11.6358 6.49233 11.4398 6.42959C11.2439 6.36685 11.0313 6.38201 10.8463 6.47191C10.6612 6.5618 10.5179 6.71953 10.4462 6.91233C10.3744 7.10513 10.3796 7.31817 10.4608 7.5072L10.5016 7.5912L11.0832 8.6288L9.6376 11.2096C9.53702 11.3878 9.50854 11.5978 9.55802 11.7963C9.6075 11.9949 9.73119 12.1669 9.90363 12.2771C10.0761 12.3872 10.2842 12.4271 10.4851 12.3885C10.6861 12.3499 10.8646 12.2358 10.984 12.0696L11.0344 11.9912L13.4984 7.5912C13.6003 7.41295 13.6298 7.20233 13.5808 7.00293C13.5317 6.80354 13.4079 6.63064 13.2349 6.52003C13.0619 6.40942 12.8529 6.36957 12.6514 6.40873C12.4498 6.44789 12.271 6.56306 12.152 6.7304L12.1016 6.8088L12 6.992L11.8984 6.8104V6.8088Z" fill="black"/>
</svg>
