<svg width="24" height="24" viewBox="0 0 24 24" fill="none" xmlns="http://www.w3.org/2000/svg">
<path d="M7.15625 14.625C7.34583 14.625 7.50246 14.5629 7.62613 14.4386C7.75038 14.315 7.8125 14.1583 7.8125 13.9688V12.875H9.5625V13.9688C9.5625 14.1583 9.62463 14.315 9.74888 14.4386C9.87254 14.5629 10.0292 14.625 10.2188 14.625C10.4083 14.625 10.5653 14.5629 10.6895 14.4386C10.8132 14.315 10.875 14.1583 10.875 13.9688V10.0312C10.875 9.84167 10.8132 9.68475 10.6895 9.5605C10.5653 9.43683 10.4083 9.375 10.2188 9.375C10.0292 9.375 9.87254 9.43683 9.74888 9.5605C9.62463 9.68475 9.5625 9.84167 9.5625 10.0312V11.5625H7.8125V10.0312C7.8125 9.84167 7.75038 9.68475 7.62613 9.5605C7.50246 9.43683 7.34583 9.375 7.15625 9.375C6.96667 9.375 6.81004 9.43683 6.68637 9.5605C6.56212 9.68475 6.5 9.84167 6.5 10.0312V13.9688C6.5 14.1583 6.56212 14.315 6.68637 14.4386C6.81004 14.5629 6.96667 14.625 7.15625 14.625ZM13.0625 14.625H16.125C16.3729 14.625 16.5806 14.541 16.748 14.373C16.916 14.2056 17 13.9979 17 13.75V10.25C17 10.0021 16.916 9.79412 16.748 9.62612C16.5806 9.45871 16.3729 9.375 16.125 9.375H13.0625C12.9458 9.375 12.8437 9.41875 12.7562 9.50625C12.6687 9.59375 12.625 9.69583 12.625 9.8125V14.1875C12.625 14.3042 12.6687 14.4063 12.7562 14.4938C12.8437 14.5813 12.9458 14.625 13.0625 14.625ZM13.9375 13.3125V10.6875H15.6875V13.3125H13.9375ZM4.75 19C4.26875 19 3.85692 18.8288 3.5145 18.4864C3.1715 18.1434 3 17.7313 3 17.25V6.75C3 6.26875 3.1715 5.85692 3.5145 5.5145C3.85692 5.1715 4.26875 5 4.75 5H18.75C19.2313 5 19.6434 5.1715 19.9864 5.5145C20.3288 5.85692 20.5 6.26875 20.5 6.75V17.25C20.5 17.7313 20.3288 18.1434 19.9864 18.4864C19.6434 18.8288 19.2313 19 18.75 19H4.75Z" fill="black"/>
</svg>
