<svg width="48" height="48" viewBox="0 0 48 48" fill="none" xmlns="http://www.w3.org/2000/svg">
<path d="M24 44C29.5228 44 34.5228 41.7614 38.1421 38.1421C41.7614 34.5228 44 29.5228 44 24C44 18.4772 41.7614 13.4772 38.1421 9.85786C34.5228 6.23858 29.5228 4 24 4C18.4772 4 13.4772 6.23858 9.85786 9.85786C6.23858 13.4772 4 18.4772 4 24C4 29.5228 6.23858 34.5228 9.85786 38.1421C13.4772 41.7614 18.4772 44 24 44Z" stroke="black" stroke-width="4" stroke-linejoin="round"/>
<path d="M24 28.625V24.625C27.3137 24.625 30 21.9387 30 18.625C30 15.3113 27.3137 12.625 24 12.625C20.6863 12.625 18 15.3113 18 18.625" stroke="black" stroke-width="4" stroke-linecap="round" stroke-linejoin="round"/>
<path fill-rule="evenodd" clip-rule="evenodd" d="M24 37.625C25.3807 37.625 26.5 36.5057 26.5 35.125C26.5 33.7443 25.3807 32.625 24 32.625C22.6193 32.625 21.5 33.7443 21.5 35.125C21.5 36.5057 22.6193 37.625 24 37.625Z" fill="black"/>
</svg>
