<svg width="24" height="24" viewBox="0 0 24 24" fill="none" xmlns="http://www.w3.org/2000/svg">
<path d="M16.433 8.59598C15.8699 8.59383 15.3119 8.70278 14.7909 8.91659C14.2699 9.13039 13.7963 9.44486 13.397 9.84198L12.001 11.182L10.626 9.86198C10.226 9.4592 9.74991 9.13988 9.22548 8.92255C8.70104 8.70523 8.13867 8.59422 7.57099 8.59598C7.00367 8.5946 6.44171 8.70578 5.91765 8.92309C5.39359 9.1404 4.91786 9.45953 4.51799 9.86198C4.11508 10.262 3.7956 10.738 3.5781 11.2624C3.36061 11.7868 3.24942 12.3492 3.25099 12.917C3.25099 14.069 3.69999 15.155 4.51699 15.97C4.91684 16.3727 5.39272 16.692 5.91698 16.9094C6.44125 17.1267 7.00347 17.2377 7.57099 17.236C8.13434 17.2384 8.6926 17.1294 9.21364 16.9152C9.73469 16.701 10.2082 16.3859 10.607 15.988L12.002 14.65L13.378 15.97C14.193 16.786 15.279 17.236 16.433 17.236C17.587 17.236 18.671 16.787 19.486 15.97C20.303 15.156 20.753 14.07 20.753 12.915C20.753 11.76 20.304 10.677 19.487 9.85998C19.0866 9.45808 18.6106 9.13946 18.0864 8.92252C17.5622 8.70557 17.0003 8.59459 16.433 8.59598ZM8.85699 14.201C8.16999 14.889 6.97299 14.889 6.28499 14.201C6.11566 14.0326 5.98136 13.8324 5.88988 13.6118C5.79839 13.3913 5.75153 13.1548 5.75199 12.916C5.75199 12.43 5.94099 11.975 6.28699 11.629C6.62899 11.285 7.08599 11.096 7.57099 11.096C8.05599 11.096 8.51299 11.285 8.87599 11.647L10.197 12.917L8.85699 14.201ZM17.718 14.201C17.031 14.89 15.852 14.906 15.128 14.183L13.807 12.913L15.146 11.628C15.834 10.94 17.032 10.94 17.719 11.626C18.063 11.972 18.252 12.427 18.252 12.913C18.252 13.399 18.062 13.857 17.718 14.201Z" fill="black"/>
</svg>
