<svg width="24" height="24" viewBox="0 0 24 24" fill="none" xmlns="http://www.w3.org/2000/svg">
<path d="M11.4871 8.85254C10.785 8.85254 10.1117 9.13145 9.61522 9.62791C9.11875 10.1244 8.83984 10.7977 8.83984 11.4998C8.83984 12.2019 9.11875 12.8753 9.61522 13.3718C10.1117 13.8682 10.785 14.1471 11.4871 14.1471C12.1892 14.1471 12.8626 13.8682 13.3591 13.3718C13.8555 12.8753 14.1344 12.2019 14.1344 11.4998C14.1344 10.7977 13.8555 10.1244 13.3591 9.62791C12.8626 9.13145 12.1892 8.85254 11.4871 8.85254Z" fill="black"/>
<path fill-rule="evenodd" clip-rule="evenodd" d="M7.22742 4.23538C10.0588 3.92154 12.9162 3.92154 15.7476 4.23538C17.2945 4.40807 18.5415 5.62583 18.7232 7.17836C19.059 10.0494 19.059 12.9497 18.7232 15.8208C18.5415 17.3733 17.2945 18.5911 15.7485 18.7646C12.9168 19.0785 10.0591 19.0785 7.22742 18.7646C5.68059 18.5911 4.43351 17.3733 4.25186 15.8216C3.91605 12.9503 3.91605 10.0496 4.25186 7.17836C4.43351 5.62583 5.68059 4.40807 7.22742 4.23538ZM15.5603 6.61225C15.3443 6.61225 15.1371 6.69807 14.9843 6.85082C14.8316 7.00358 14.7457 7.21077 14.7457 7.4268C14.7457 7.64283 14.8316 7.85002 14.9843 8.00277C15.1371 8.15553 15.3443 8.24135 15.5603 8.24135C15.7763 8.24135 15.9835 8.15553 16.1363 8.00277C16.289 7.85002 16.3748 7.64283 16.3748 7.4268C16.3748 7.21077 16.289 7.00358 16.1363 6.85082C15.9835 6.69807 15.7763 6.61225 15.5603 6.61225ZM7.61841 11.4996C7.61841 10.4734 8.02604 9.48928 8.75165 8.76368C9.47725 8.03808 10.4614 7.63044 11.4875 7.63044C12.5137 7.63044 13.4978 8.03808 14.2234 8.76368C14.949 9.48928 15.3566 10.4734 15.3566 11.4996C15.3566 12.5257 14.949 13.5098 14.2234 14.2354C13.4978 14.961 12.5137 15.3687 11.4875 15.3687C10.4614 15.3687 9.47725 14.961 8.75165 14.2354C8.02604 13.5098 7.61841 12.5257 7.61841 11.4996Z" fill="black"/>
</svg>
