<svg width="23" height="24" viewBox="0 0 23 24" fill="none" xmlns="http://www.w3.org/2000/svg">
<path d="M4 4.92051V18.0788C4.00009 18.1074 4.0086 18.1353 4.02448 18.159C4.04035 18.1827 4.06287 18.2012 4.08923 18.2122C4.11558 18.2232 4.14459 18.2261 4.17261 18.2207C4.20064 18.2152 4.22643 18.2016 4.24676 18.1816L11.0981 11.5L4.24676 4.81772C4.22643 4.79768 4.20064 4.78408 4.17261 4.77864C4.14459 4.7732 4.11558 4.77615 4.08923 4.78713C4.06287 4.79811 4.04035 4.81662 4.02448 4.84035C4.0086 4.86408 4.00009 4.89196 4 4.92051ZM13.9709 8.7545L5.38012 4.02153L5.37476 4.01851C5.22677 3.93816 5.08615 4.13838 5.20735 4.2549L11.9415 10.6941L13.9709 8.7545ZM5.20802 18.7451C5.08615 18.8616 5.22677 19.0618 5.37543 18.9815L5.38079 18.9785L13.9709 14.2455L11.9415 12.3052L5.20802 18.7451ZM17.4389 10.663L15.0399 9.34177L12.7843 11.5L15.0399 13.6572L17.4389 12.337C18.0914 11.9764 18.0914 11.0236 17.4389 10.663Z" fill="black"/>
</svg>
