<svg width="24" height="24" viewBox="0 0 24 24" fill="none" xmlns="http://www.w3.org/2000/svg">
<path fill-rule="evenodd" clip-rule="evenodd" d="M10.2054 13.5294V9.13437L14.4307 11.3397L10.2054 13.5294ZM19.4841 8.37345C19.4841 8.37345 19.3317 7.29504 18.8624 6.82035C18.2681 6.19785 17.601 6.19472 17.2953 6.15797C15.1071 6 11.8234 6 11.8234 6H11.8171C11.8171 6 8.5342 6 6.3453 6.15797C6.03953 6.19472 5.37324 6.19707 4.77812 6.82035C4.3089 7.29504 4.15641 8.37345 4.15641 8.37345C4.15641 8.37345 4 9.63877 4 10.9049V12.0912C4 13.3565 4.15641 14.6226 4.15641 14.6226C4.15641 14.6226 4.3089 15.7003 4.77812 16.175C5.37246 16.7982 6.15449 16.7779 6.50249 16.8436C7.75373 16.9632 11.8203 17 11.8203 17C11.8203 17 15.1071 16.9953 17.2953 16.8373C17.601 16.8006 18.2681 16.7982 18.8624 16.175C19.3317 15.7003 19.4841 14.6226 19.4841 14.6226C19.4841 14.6226 19.6406 13.3565 19.6406 12.0912V10.9049C19.6406 9.63877 19.4841 8.37345 19.4841 8.37345Z" fill="black"/>
</svg>
